# xmcd
#
# Track frame offsets: 
#        150
#        13040
#        34282
#        54470
#        72437
#        95822
#        119217
#        137787
#        153775
#        177092
#        206645
#
# Disc length: 3141 seconds
#
# Revision: 4
# Processed by: cddbd v1.5.2PL0 Copyright (c) Steve Scherf et al.
# Submitted via: ExactAudioCopy v1.0b1
#
DISCID=a10c430b
DTITLE=Fleetwood Mac - Legends Of Rock
DYEAR=1996
DGENRE=Blues
TTITLE0=Man Of The World
TTITLE1=Got To Move
TTITLE2=Bleeding Heart
TTITLE3=Buzz Me
TTITLE4=I Held My Baby Last Night
TTITLE5=My Baby's A Good Un
TTITLE6=How Blue Can You Get
TTITLE7=My Baby's Sweet
TTITLE8=The World Keeps On Turning
TTITLE9=The Dream
TTITLE10=Don't Know Which Way To Go
EXTD=
EXTT0=
EXTT1=
EXTT2=
EXTT3=
EXTT4=
EXTT5=
EXTT6=
EXTT7=
EXTT8=
EXTT9=
EXTT10=
PLAYORDER=
